<?xml version="1.0" encoding="utf-8"?>
<!-- Generator: Adobe Illustrator 22.1.0, SVG Export Plug-In . SVG Version: 6.00 Build 0)  -->
<svg version="1.1" id="Layer_1" xmlns="http://www.w3.org/2000/svg" xmlns:xlink="http://www.w3.org/1999/xlink" x="0px" y="0px"
	 viewBox="0 0 1280 1024" style="enable-background:new 0 0 1280 1024;" xml:space="preserve">
<style type="text/css">
	.st0{fill:#E2E2E2;}
	.st1{fill:#010101;}
	.st2{fill:#FCD713;}
	.st3{fill:#0083C9;}
	.st4{fill:#FFDA1E;}
	.st5{fill:#FFFFFF;}
	.st6{fill:#A09F95;}
	.st7{fill:#F4D60E;}
	.st8{fill:#FEBE19;}
	.st9{fill:#65B846;}
	.st10{fill:#005D8C;}
	.st11{fill:#F26722;}
	.st12{fill:#F26722;stroke:#FFFFFF;stroke-width:4;stroke-miterlimit:10;}
	.st13{fill:#EE264D;}
	.st14{fill:#EE264D;stroke:#FFFFFF;stroke-width:4;stroke-miterlimit:10;}
</style>
<g>
	
		<rect x="582.9" y="578.8" transform="matrix(0.6147 0.7887 -0.7887 0.6147 704.1985 -233.4203)" class="st0" width="16.2" height="50.7"/>
	<path class="st1" d="M575.9,627.5l-11.2-14.4l41.5-32.4l11.2,14.4L575.9,627.5z M567.5,613.5l8.8,11.2l38.4-29.9l-8.8-11.2
		L567.5,613.5z"/>
</g>
<g>
	
		<rect x="689.3" y="583.3" transform="matrix(-0.8166 0.5772 -0.5772 -0.8166 1623.655 720.1337)" class="st0" width="16.2" height="69.4"/>
	<path class="st1" d="M710.6,652.5l-41.2-58.3l14.9-10.5l41.2,58.3L710.6,652.5z M672.1,594.6l38.9,55.1l11.6-8.2l-38.9-55.1
		L672.1,594.6z"/>
</g>
<g>
	<rect x="633.7" y="509.2" class="st0" width="23.8" height="54"/>
	<path class="st1" d="M658.5,564.2h-25.8v-56h25.8V564.2z M634.7,562.2h21.8v-52h-21.8V562.2z"/>
</g>
<g>
	<path class="st2" d="M588.2,592.6l17.2,14.5c0,0,9,1.2,20.5-10.3l-26-27.5C600,569.3,587.8,581.4,588.2,592.6z"/>
	<path class="st1" d="M606.3,608.1c-0.6,0-0.9,0-1,0l-0.3,0l-17.8-15l0-0.4c-0.4-11.5,11.6-23.5,12.1-24l0.7-0.7l27.3,28.9l-0.7,0.7
		C617,607.2,609,608.1,606.3,608.1z M605.8,606.1c1.5,0.1,9.2-0.1,18.7-9.3l-24.6-26c-2.5,2.7-10.8,12.4-10.8,21.3L605.8,606.1z"/>
</g>
<g>
	<path class="st2" d="M694.8,594.2l-17.2,14.5c0,0-9,1.2-20.5-10.3l26-27.5C683,571,695.2,583,694.8,594.2z"/>
	<path class="st1" d="M676.8,609.8c-2.7,0-10.7-0.9-20.4-10.6l-0.7-0.7l27.3-28.9l0.7,0.7c0.5,0.5,12.5,12.5,12.1,24l0,0.4l-17.8,15
		l-0.3,0C677.7,609.7,677.3,609.8,676.8,609.8z M658.5,598.4c9.6,9.3,17.2,9.4,18.7,9.3l16.6-14c0.1-9-8.3-18.6-10.8-21.3
		L658.5,598.4z"/>
</g>
<g>
	<path class="st2" d="M684.7,555c-6.2-4.5-3.3-12.7-3.3-12.7l-22,4c-4.1,11.1-10.6,12.5-13.5,12.5v-0.1c0,0-0.3,0.1-0.8,0.1
		c-0.5,0-0.8-0.1-0.8-0.1v0.1c-2.9,0-9.4-1.4-13.5-12.5l-22-4c0,0,2.9,8.2-3.3,12.7c-6.2,4.5-13.3,4.1-10.4,18.9
		c0,0,12.9,6.2,20,14.4c6.9,8,11.4,20.2,29.3,20.5v0c0.3,0,0.5,0,0.8,0c0.3,0,0.5,0,0.8,0v0c17.8-0.3,22.4-12.5,29.3-20.5
		c7.1-8.2,20-14.4,20-14.4C698,559.1,691,559.5,684.7,555z"/>
	<path class="st1" d="M645.8,609.7c-0.1,0-0.2,0-0.4,0c-0.1,0-0.2,0-0.3,0c-0.1,0-0.2,0-0.3,0c-0.2,0-0.3,0-0.5,0l-1-0.1
		c-14.1-0.6-20-8.6-25.2-15.8c-1.3-1.8-2.5-3.5-3.9-5c-6.9-8-19.5-14-19.6-14.1l-0.5-0.2l-0.1-0.5c-2.5-12.4,2.1-14.9,7-17.6
		c1.2-0.7,2.5-1.4,3.8-2.3c5.5-4,3.1-11.3,3-11.6l-0.6-1.6l24.3,4.4l0.2,0.5c3.5,9.4,8.7,11.4,11.5,11.8v-0.3l1.2,0.3
		c0,0,0.2,0,0.5,0.1c0.3,0,0.5-0.1,0.5-0.1l1.2-0.3l0,0.3c2.9-0.3,8.1-2.4,11.5-11.8l0.2-0.5l24.3-4.4l-0.6,1.6
		c-0.1,0.3-2.6,7.6,3,11.6c1.2,0.9,2.5,1.6,3.8,2.3c4.9,2.7,9.5,5.2,7,17.6l-0.1,0.5l-0.5,0.2c-0.1,0.1-12.8,6.2-19.6,14.1
		c-1.3,1.5-2.6,3.2-3.9,5c-5.2,7.1-11.1,15.2-25.2,15.8v0L645.8,609.7C645.9,609.7,645.9,609.7,645.8,609.7z M645.4,607.7
		C645.4,607.7,645.4,607.7,645.4,607.7l0.5,0c13.8-0.2,19.3-7.7,24.6-15c1.3-1.8,2.6-3.6,4-5.2c6.5-7.5,17.4-13.2,19.8-14.4
		c2-10.6-1.4-12.4-6.1-15c-1.3-0.7-2.6-1.4-4-2.4c-5-3.6-4.6-9.5-4.1-12.3l-20,3.7c-4.4,11.3-11.4,12.6-14.2,12.6l-0.5,0l-0.2,0
		l-0.2,0v0l-0.5,0c-2.8,0-9.8-1.3-14.2-12.6l-20-3.7c0.5,2.8,0.9,8.6-4.1,12.3c-1.3,1-2.7,1.7-4,2.4c-4.7,2.5-8.1,4.4-6.1,15
		c2.4,1.2,13.4,6.9,19.8,14.4c1.4,1.6,2.6,3.3,4,5.2c5.3,7.2,10.7,14.7,24.6,15L645.4,607.7z"/>
</g>
<path class="st1" d="M589.6,645.5c0,0-18.3-8.5-49.2,11.2c0,0,15.8,6.9,30.4,3.5C578,658.5,583.7,652.1,589.6,645.5z"/>
<g>
	
		<rect x="559.4" y="635.9" transform="matrix(0.9849 -0.1734 0.1734 0.9849 -107.0585 108.7922)" class="st0" width="19.4" height="62.6"/>
	<path class="st1" d="M564.2,700.8L553,637.2l21.1-3.7l11.2,63.6L564.2,700.8z M555.3,638.8l10.5,59.7l17.1-3l-10.5-59.7
		L555.3,638.8z"/>
</g>
<g>
	<path class="st0" d="M685,639.9c0,0,12.3-0.4,17.6-8.6s11.5-23.8,19.3-17.2s7,35.7,7,35.7l0,22.1l-13.1,10.3L710,717h-14.2l-1-33.2
		l-9.8-11.1V639.9z"/>
	<path class="st1" d="M710.9,718h-16l-1-33.8l-9.9-11.1v-34.2l1,0c0.1,0,11.9-0.5,16.8-8.2c1-1.6,2-3.4,3.1-5.3
		c3.7-6.4,7.4-13,12.2-13.9c1.8-0.3,3.7,0.2,5.4,1.7c8.1,6.8,7.4,35.3,7.3,36.5l0,22.6l-13.2,10.3L710.9,718z M696.8,716h12.4
		l5.7-34.4l13.1-10.2l0-21.7c0-0.1,0.2-7.4-0.6-15.3c-1-10.3-3.1-17.1-6.1-19.6c-1.3-1.1-2.5-1.5-3.8-1.3
		c-3.9,0.7-7.6,7.2-10.8,12.9c-1.1,1.9-2.2,3.8-3.2,5.4c-4.7,7.3-14.4,8.7-17.5,9v31.5l9.8,11.1L696.8,716z"/>
</g>
<g>
	<path class="st3" d="M589.6,645.5l0.3,43.6l4.7,9l-4.7,14.8L580,717l-1.6-5.3l-8.6,5.3l-32.8,2.1l12.7-11.9l4.1-13.5l-11.9-36.9
		C541.8,656.7,570.9,665.1,589.6,645.5"/>
	<path class="st1" d="M534.2,720.2l14.6-13.6l3.9-13l-12.4-38.4l1.8,0.5c0.3,0.1,28.7,7.9,46.7-10.9l1.7-1.8l0.3,45.8l4.7,9.2
		l-4.9,15.6l-11.3,4.7l-1.6-5.1l-7.7,4.8L534.2,720.2z M543.3,658.1l11.4,35.5l-4.3,14.1l-10.9,10.2l29.8-1.9l9.5-5.9l1.7,5.5
		l8.4-3.5l4.4-13.9l-4.6-8.9l-0.2-41.5C572.4,662.9,549.8,659.5,543.3,658.1z"/>
</g>
<g>
	<path class="st0" d="M585,632.4c-1.4-1.4-2.7-2.9-4-4.3c-0.1-0.1-0.2-0.2-0.3-0.4c-0.4-1.3-0.6-2.6,0.3-3.8
		c0.1-0.2,0.3-0.3,0.5-0.4c1.9-1,3.8-2,5.7-2.9c0.5-0.3,0.8-0.7,0.8-1.2c0.2-1.8-0.1-3.5-1-5c-0.4-0.6-0.8-1-1.6-1
		c-1.8-0.1-3.5-0.1-5.3-0.2c-0.4,0-0.8,0.1-1.1-0.1c-1.3-0.6-2.2-1.5-2.4-3c0-0.2,0-0.4,0.1-0.6c0.6-2,1.3-4,1.9-6
		c0.2-0.6,0-1.2-0.4-1.7c-1.1-1.3-2.5-2.2-4.2-2.7c-0.7-0.2-1.3-0.1-1.9,0.4c-1.7,1.6-3.4,3.2-5.1,4.8c-0.2,0.2-0.3,0.2-0.6,0.2
		c-0.8-0.2-1.6-0.3-2.4-0.4c-0.3,0-0.5-0.2-0.6-0.5c-1-2.1-2.1-4.2-3.2-6.2c-0.3-0.5-0.7-0.8-1.3-0.9c-1.9-0.2-3.7,0.3-5.4,1.3
		c-0.4,0.2-0.6,0.6-0.6,1c0,0.3-0.1,0.5-0.1,0.8c-0.1,2-0.1,4-0.2,6.1c0,0.1,0,0.3-0.1,0.4c-0.3,0.4-0.6,0.9-1,1.2
		c-0.9,0.6-1.8,1.1-3,0.7c-0.2-0.1-0.3-0.1-0.5-0.2c-1.7-0.5-3.3-1-5-1.6c-0.7-0.2-1.2-0.1-1.7,0.4c-1.2,1-1.9,2.2-2.5,3.6
		c-0.4,1.1-0.3,1.9,0.5,2.7c1.4,1.4,2.7,2.9,4.1,4.3c0.1,0.1,0.2,0.2,0.2,0.4c0.3,1.2,0.2,2.4-0.6,3.5c-0.1,0.2-0.3,0.4-0.5,0.5
		c-1.9,1-3.7,1.9-5.6,2.9c-0.5,0.3-0.8,0.6-0.8,1.2c0,0.1-0.1,0.2-0.1,0.4c0,0.1,0,0.3,0,0.4c-0.1,1.7,0.5,3.2,1.3,4.6
		c0.2,0.4,0.6,0.6,1.1,0.6c2,0.1,4.1,0.2,6.1,0.2c0.3,0,0.6,0,0.9,0.1c1.2,0.7,2,1.6,2.1,3c0,0.1,0,0.2-0.1,0.4
		c-0.7,2-1.3,4.1-2,6.1c-0.2,0.7,0,1.3,0.4,1.9c1.1,1.3,2.5,2.1,4,2.6c0.8,0.2,1.4,0.1,2-0.4c1.7-1.6,3.4-3.2,5.1-4.8
		c0.2-0.2,0.3-0.2,0.6-0.1c0.8,0.2,1.6,0.3,2.4,0.4c0.3,0,0.4,0.1,0.5,0.4c1.1,2.1,2.2,4.3,3.3,6.4c0.3,0.5,0.7,0.8,1.3,0.8
		c0.1,0,0.3,0,0.4,0c1.8,0.1,3.4-0.3,4.8-1.2c0.4-0.3,0.7-0.6,0.7-1.1c0.1-1.9,0.2-3.8,0.2-5.6c0-0.3-0.1-0.7,0-1
		c0.4-0.9,0.9-1.8,1.9-2.2c0.5-0.2,1-0.5,1.5-0.3c2.1,0.7,4.2,1.3,6.2,2c0.6,0.2,1.1,0.1,1.5-0.3c1.4-1.1,2.3-2.5,2.8-4.2
		C585.7,633.6,585.6,633,585,632.4z M560.9,629.5c-3.6-0.6-6-4.1-5.4-7.7c0.6-3.6,4.1-6,7.7-5.4s6,4.1,5.4,7.7
		C568,627.7,564.6,630.2,560.9,629.5z"/>
	<path class="st1" d="M566.3,649.4c-0.2,0-0.4,0-0.6,0l-0.4,0c-1.2-0.1-1.8-0.8-2.1-1.3l-0.7-1.4c-0.8-1.6-1.7-3.3-2.5-4.9
		c-0.7-0.1-1.4-0.2-2.1-0.4c-0.8,0.7-1.5,1.4-2.3,2.1c-0.9,0.8-1.8,1.7-2.7,2.5c-0.8,0.8-1.8,1-2.9,0.7c-1.9-0.6-3.3-1.5-4.5-2.9
		c-0.8-0.9-1-1.8-0.6-2.8c0.5-1.6,1.1-3.3,1.6-4.9l0.4-1.2v0c-0.1-0.9-0.6-1.6-1.6-2.2c-0.1,0-0.1,0-0.2,0c-0.1,0-0.2,0-0.3,0
		l-2.2-0.1c-1.3,0-2.6-0.1-3.9-0.2c-0.8,0-1.5-0.4-1.9-1.1c-1.1-1.8-1.6-3.5-1.5-5.2l0-0.1c0-0.1,0-0.2,0-0.3c0-0.1,0-0.2,0.1-0.4
		c0-0.6,0.2-1.5,1.4-2l2.4-1.2c1.1-0.6,2.2-1.1,3.3-1.7c0.1,0,0.2-0.1,0.2-0.2c0.5-0.7,0.7-1.5,0.5-2.5c-0.4-0.5-0.8-0.8-1.1-1.2
		c-0.9-1-1.9-2.1-2.9-3.1c-1.1-1.1-1.3-2.3-0.8-3.8c0.6-1.6,1.5-3,2.8-4c0.8-0.7,1.7-0.9,2.7-0.6c1.1,0.3,2.1,0.7,3.2,1l1.8,0.6
		c0.2,0.1,0.4,0.1,0.6,0.2c0.6,0.2,1.1,0.1,2-0.5c0.2-0.1,0.4-0.4,0.6-0.7c0-0.1,0.1-0.1,0.1-0.2l0.2-6c0-0.3,0-0.6,0.1-0.8
		c0.1-0.7,0.5-1.4,1.1-1.7c1.9-1.2,3.9-1.7,6-1.4c0.9,0.1,1.6,0.6,2.1,1.4l0.6,1.2c0.9,1.7,1.7,3.3,2.5,5c0.7,0.1,1.4,0.2,2.1,0.4
		c0.7-0.7,1.4-1.3,2.1-2c1-0.9,1.9-1.8,2.9-2.7c0.8-0.7,1.7-1,2.8-0.6c1.9,0.5,3.4,1.5,4.7,3c0.7,0.8,0.9,1.7,0.6,2.6
		c-0.7,2-1.3,4-1.9,6c0,0,0,0.1,0,0.2c0.1,1,0.7,1.7,1.8,2.2c0,0,0.2,0,0.3,0c0.2,0,0.3,0,0.5,0l1.4,0.1c1.3,0.1,2.6,0.1,3.9,0.1
		c1.1,0,1.9,0.5,2.4,1.5c1,1.8,1.4,3.6,1.1,5.6c-0.1,0.9-0.6,1.6-1.4,2c-1.9,1-3.8,1.9-5.7,2.9c-0.1,0-0.1,0.1-0.2,0.1
		c-0.5,0.7-0.6,1.5-0.2,2.8l1.2,1.3c1,1,1.9,2.1,2.9,3.1l0,0c0.8,0.8,1,1.8,0.7,2.9c-0.5,1.9-1.6,3.5-3.1,4.7
		c-0.7,0.6-1.6,0.8-2.5,0.5c-1.1-0.4-2.2-0.7-3.3-1.1c-1-0.3-1.9-0.6-2.9-0.9c-0.2-0.1-0.3,0-0.7,0.2c-0.6,0.3-1,0.9-1.4,1.7
		c0,0.1,0,0.1,0,0.2c0,0.2,0,0.3,0,0.5l0,0.7c-0.1,1.7-0.1,3.3-0.2,5c0,0.6-0.3,1.4-1.2,1.9C569.6,648.9,568,649.4,566.3,649.4z
		 M557.6,639.3c0.1,0,0.2,0,0.4,0c0.8,0.2,1.6,0.3,2.4,0.4c0.6,0.1,1,0.4,1.2,0.9c0.9,1.7,1.7,3.4,2.6,5.1l0.7,1.4
		c0.1,0.1,0.1,0.2,0.5,0.3l0.4,0c1.5,0.1,2.9-0.3,4.2-1.1c0.2-0.1,0.2-0.2,0.2-0.3c0.1-1.7,0.1-3.3,0.2-5l0-0.7c0-0.1,0-0.2,0-0.2
		c0-0.3-0.1-0.7,0.2-1.2c0.5-1,1.1-2.1,2.3-2.7c0.5-0.3,1.3-0.7,2.3-0.3c1,0.3,1.9,0.6,2.9,0.9c1.1,0.4,2.2,0.7,3.4,1.1
		c0.2,0.1,0.4,0.1,0.6-0.1c1.2-1,2-2.2,2.4-3.7c0.1-0.5,0-0.7-0.2-1l0,0c-1-1-2-2.1-3-3.2l-1.1-1.1c-0.2-0.2-0.4-0.4-0.5-0.7
		c-0.4-1.2-0.8-3,0.5-4.7c0.2-0.3,0.5-0.5,0.8-0.7c1.9-1,3.8-2,5.7-2.9c0.2-0.1,0.3-0.2,0.3-0.5c0.2-1.6-0.1-3-0.9-4.4
		c-0.2-0.4-0.4-0.5-0.7-0.5c-1.3,0-2.6-0.1-3.9-0.1l-1.4-0.1c-0.1,0-0.2,0-0.3,0c-0.3,0-0.8,0-1.3-0.2c-1.8-0.8-2.8-2.1-3-3.8
		c0-0.3,0-0.7,0.1-1c0.6-2,1.3-4,1.9-6c0.1-0.2,0.1-0.4-0.2-0.7c-1-1.2-2.2-2-3.7-2.4c-0.5-0.1-0.7-0.1-0.9,0.2
		c-1,0.9-1.9,1.8-2.9,2.7c-0.7,0.7-1.5,1.4-2.2,2.1c-0.4,0.4-0.9,0.5-1.4,0.4c-0.8-0.2-1.5-0.3-2.3-0.4c-0.8-0.1-1.2-0.6-1.4-1
		c-0.8-1.7-1.7-3.4-2.6-5l-0.6-1.2c-0.1-0.2-0.3-0.3-0.5-0.4c-1.6-0.2-3.2,0.2-4.7,1.1c-0.1,0.1-0.1,0.1-0.2,0.3
		c0,0.2,0,0.5-0.1,0.7l-0.2,6.1c0,0.3-0.1,0.7-0.3,1c-0.1,0.1-0.1,0.2-0.2,0.3c-0.3,0.3-0.6,0.7-1,1.1c-1,0.7-2.3,1.4-3.9,0.8
		c-0.1-0.1-0.3-0.1-0.4-0.1l-1.8-0.6c-1.1-0.3-2.1-0.7-3.2-1c-0.3-0.1-0.5-0.1-0.8,0.2c-1,0.8-1.7,1.9-2.2,3.2
		c-0.3,0.8-0.2,1.2,0.3,1.7c1,1,2,2.1,3,3.1c0.4,0.4,0.7,0.8,1.1,1.2c0.2,0.2,0.4,0.5,0.5,0.8c0.4,1.7,0.1,3.1-0.8,4.3
		c-0.2,0.3-0.5,0.6-0.9,0.7c-1.1,0.6-2.2,1.1-3.3,1.7l-2.3,1.2c-0.3,0.2-0.3,0.2-0.3,0.3l0,0.1l0,0.2c0,0.1,0,0.1,0,0.2
		c0,0,0,0.1,0,0.1l0,0.2c-0.1,1.3,0.3,2.7,1.2,4c0,0.1,0.1,0.1,0.2,0.1c1.3,0.1,2.6,0.1,3.9,0.2l2.2,0.1c0.1,0,0.1,0,0.2,0
		c0.3,0,0.8,0,1.2,0.2c1.5,0.9,2.4,2.2,2.6,3.8c0,0.2,0,0.5-0.1,0.8l-0.4,1.2c-0.5,1.6-1,3.3-1.6,4.9c-0.1,0.3-0.1,0.5,0.3,0.9
		c0.9,1.1,2.1,1.8,3.6,2.3c0.5,0.2,0.7,0.1,1-0.2c0.9-0.8,1.8-1.7,2.7-2.5c0.8-0.8,1.6-1.5,2.4-2.3
		C556.9,639.5,557.2,639.3,557.6,639.3z M572.5,639.7L572.5,639.7L572.5,639.7z M581.7,627.4C581.7,627.4,581.7,627.4,581.7,627.4
		C581.7,627.4,581.7,627.4,581.7,627.4z M562.1,630.6c-0.4,0-0.9,0-1.3-0.1c-2-0.3-3.8-1.5-4.9-3.1c-1.2-1.7-1.6-3.7-1.3-5.7
		c0.3-2,1.5-3.8,3.1-4.9s3.7-1.6,5.7-1.3c2,0.3,3.8,1.5,4.9,3.1c1.2,1.7,1.6,3.7,1.3,5.7s-1.5,3.8-3.1,4.9
		C565.2,630.1,563.7,630.6,562.1,630.6z M562.1,617.4c-1.2,0-2.3,0.4-3.2,1c-1.2,0.9-2,2.2-2.3,3.6c-0.3,1.5,0.1,3,0.9,4.2
		c0.9,1.2,2.2,2,3.6,2.3c1.5,0.3,3-0.1,4.2-0.9c1.2-0.9,2-2.2,2.3-3.6c0.3-1.5-0.1-3-0.9-4.2c-0.9-1.2-2.2-2-3.6-2.3
		C562.7,617.4,562.4,617.4,562.1,617.4z"/>
</g>
<g>
	<path class="st2" d="M800.9,434.4c-9.8-11.5-44.3-6.2-44.3-6.2c-59.3-27.4-101.5-22-107.4-21c-5.8-0.9-48-6.3-107.4,21
		c0,0-34.5-5.3-44.3,6.2c-9.8,11.5-13.9,25.4,2.1,36.5c16,11.1,40.6,0,40.6,0s6.2,7.4,14.4,10.3s19.7,4.1,19.7,4.1
		s4.1,16.4,17.2,32.4c0,0,10.5,3.6,57,3.7v0c0.2,0,0.5,0,0.7,0c0.2,0,0.5,0,0.7,0v0c46.5-0.1,57-3.7,57-3.7
		c13.1-16,17.2-32.4,17.2-32.4s11.5-1.2,19.7-4.1s14.4-10.3,14.4-10.3s24.6,11.1,40.6,0C814.8,459.8,810.7,445.9,800.9,434.4z"/>
	<path class="st1" d="M649.9,522.4l-0.7,0l-1.7,0v0c-45.3-0.1-55.9-3.6-56.3-3.7l-0.3-0.1l-0.2-0.2c-11.6-14.2-16.3-28.8-17.2-32.1
		c-2.6-0.3-12.1-1.6-19.2-4.1c-7.1-2.5-12.7-8.2-14.3-10c-4.2,1.8-25.9,10-40.9-0.4c-6.5-4.5-10.2-9.8-11-15.8
		c-0.9-6.8,2.2-14.5,8.8-22.2c9.7-11.3,41.2-7.1,44.9-6.5c25-11.5,49.8-18.6,73.8-21.1c18.4-1.9,30.3-0.5,33.7,0.1
		c5.4-0.8,48.3-6.3,107.5,21c3.7-0.5,35.2-4.8,44.9,6.5l0,0c6.6,7.7,9.6,15.4,8.8,22.2c-0.8,6-4.5,11.3-11,15.8
		c-15,10.4-36.7,2.1-40.9,0.4c-1.6,1.8-7.2,7.5-14.3,10c-7.2,2.5-16.6,3.8-19.2,4.1c-0.9,3.3-5.6,18-17.2,32.1l-0.2,0.2l-0.3,0.1
		c-0.4,0.1-11,3.6-56.3,3.7v0L649.9,522.4z M592.1,516.8c1.9,0.5,14.5,3.5,56.4,3.6l1,0l0.4,0c41.9-0.1,54.6-3,56.4-3.6
		c12.7-15.6,16.8-31.6,16.8-31.8l0.2-0.7l0.7-0.1c0.1,0,11.5-1.3,19.5-4.1c7.9-2.7,13.9-9.9,13.9-9.9l0.5-0.6l0.7,0.3
		c0.1,0,6.2,2.7,14.1,4.1c7.2,1.2,17.5,1.5,25.5-4c6.1-4.2,9.5-9,10.2-14.4c0.8-6.2-2.1-13.3-8.3-20.6c-9.4-10.9-43-5.9-43.4-5.8
		l-0.3,0l-0.3-0.1c-24.9-11.5-49.6-18.6-73.4-21c-18.4-1.9-30.2-0.4-33.4,0.1l-0.2,0l-0.2,0c-4.7-0.7-47.3-6.5-106.8,21l-0.3,0.1
		l-0.3,0c-0.3-0.1-34-5.1-43.4,5.8c-6.2,7.3-9.1,14.4-8.3,20.6c0.7,5.4,4.1,10.2,10.2,14.4c8,5.5,18.3,5.2,25.5,4
		c7.9-1.3,14-4.1,14.1-4.1l0.7-0.3l0.5,0.6c0.1,0.1,6.1,7.2,13.9,10c8,2.8,19.3,4,19.5,4.1l0.7,0.1l0.2,0.7
		C575.3,485.2,579.4,501.3,592.1,516.8z"/>
</g>
<path class="st1" d="M757.6,470.5c0,0,25.5,12,41.3,0c14.5-10.9,10-21.7,10-21.7h-51.3V470.5z"/>
<path class="st1" d="M540.5,470.5c0,0-25.5,12-41.3,0c-14.5-10.9-10-21.7-10-21.7h51.3V470.5z"/>
<g>
	<polygon class="st0" points="769.9,456.2 772.3,528.3 787.5,528.3 783.8,456.2 	"/>
	<path class="st1" d="M788.6,529.3h-17.2l0-1l-2.5-73.2h15.9L788.6,529.3z M773.3,527.3h13.2l-3.6-70.2h-12L773.3,527.3z"/>
</g>
<g>
	<polygon class="st0" points="521.3,459 518.9,531.2 503.7,531.2 507.4,459 	"/>
	<path class="st1" d="M519.8,532.2h-17.2l3.8-74.2h15.9L519.8,532.2z M504.8,530.2h13.2l2.4-70.2h-12L504.8,530.2z"/>
</g>
<g>
	<path class="st3" d="M505.8,513.2c0,0-10-6.2,8.7-18c18.7-11.9,20.3-26.7,11.3-42.7l-6.5,3.7c0,0,7.8,10.3,4.1,17.6
		c-3.7,7.4-7.8,10.7-24.2,23.4c-16.4,12.7,0,23.1,0,23.1L505.8,513.2z"/>
	<path class="st1" d="M499.4,521.5l-0.7-0.4c-0.3-0.2-7.4-4.8-7.7-11.8c-0.2-4.5,2.4-8.8,7.7-12.9c16.7-12.9,20.4-15.9,23.9-23
		c3.4-6.7-3.9-16.5-4-16.6l-0.7-0.9l8.4-4.7l0.5,0.9c10.1,17.9,6.1,32.7-11.7,44c-9,5.7-10.9,9.9-10.9,12.3c0,2.6,2.1,4,2.2,4l1,0.6
		L499.4,521.5z M520.7,456.5c1.9,2.8,6.8,11.2,3.5,17.8c-3.7,7.5-7.8,10.8-24.5,23.7c-4.8,3.7-7.1,7.5-6.9,11.2
		c0.2,4.8,4.5,8.5,6.1,9.7l5.2-5.7c-0.9-0.9-2.2-2.5-2.2-4.9c0-4.3,4-9.1,11.9-14.1c16.7-10.6,20.4-23.8,11.5-40.4L520.7,456.5z"/>
</g>
<g>
	<path class="st3" d="M790.3,523c0,0,18.6-13.5-8.7-27.9c-19.6-10.3-20.3-29.9-11.3-45.9l6.5,3.7c0,0-7.8,13.5-4.1,20.9
		c3.7,7.4,7.8,10.7,24.2,23.4c16.4,12.7,0,32.9,0,32.9L790.3,523z"/>
	<path class="st1" d="M796.9,531.6l-8.1-8.8l0.9-0.7c0.1,0,6.2-4.6,5.7-10.9c-0.4-5.3-5.2-10.5-14.4-15.3
		c-8.3-4.4-13.9-10.8-16.2-18.6c-2.6-8.8-1-19,4.5-28.8l0.5-0.9l8.3,4.7l-0.5,0.9c-0.1,0.1-7.5,13.2-4.1,20
		c3.5,7.1,7.2,10.1,23.9,23c4.4,3.4,7,7.7,7.6,12.7c1.2,10.8-7,21.2-7.4,21.6L796.9,531.6z M791.7,523.1l5,5.4
		c1.9-2.7,7.2-11,6.3-19.2c-0.5-4.5-2.8-8.3-6.8-11.4c-16.7-12.9-20.7-16.3-24.5-23.7c-3.4-6.7,1.9-17.8,3.6-21l-4.8-2.7
		c-4.8,9-6.2,18.3-3.8,26.3c2.2,7.3,7.3,13.2,15.2,17.3c9.8,5.1,15,10.8,15.4,16.9C797.8,517,793.6,521.5,791.7,523.1z"/>
</g>
<g>
	<path class="st2" d="M757.6,457.4c0,0,11.5-1.6,16,2.5s4.1,9.8,4.1,9.8s13.1,0,18-9.4c4.9-9.4,13.1-12.3,13.1-12.3
		s-4.4-11.9-13.5-16.8c-9.8-5.3-20.9-5.7-37.3-1.6L757.6,457.4z"/>
	<path class="st1" d="M777.7,470.7h-1.1l0.1-1.1c0-0.1,0.3-5.3-3.8-9c-4.1-3.7-15.1-2.2-15.2-2.2l-1.2,0.2l0.4-29.8l0.7-0.2
		c16.7-4.2,28.1-3.7,38,1.7c9.4,5.1,13.8,16.8,14,17.3l0.4,1l-1,0.3c-0.1,0-7.9,2.9-12.6,11.8C791.5,470.6,778.2,470.7,777.7,470.7z
		 M762.7,456.1c3.8,0,8.8,0.5,11.5,3c3.6,3.3,4.3,7.5,4.4,9.5c3.1-0.2,12.4-1.5,16.2-8.8c4.1-7.8,10.3-11.3,12.7-12.4
		c-1.2-2.8-5.4-11.5-12.7-15.4c-9.3-5.1-20.1-5.6-35.9-1.7l-0.4,26C759.6,456.2,761,456.1,762.7,456.1z"/>
</g>
<g>
	<path class="st4" d="M755.5,534.9v23.8l50.9-4.5c0,0,3.3-8.6,0-26.7C806.4,527.5,780.6,507,755.5,534.9z"/>
	<path class="st1" d="M754.5,559.8v-25.3l0.3-0.3c25.4-28.3,52-7.7,52.2-7.5l0.3,0.2l0.1,0.4c3.3,18.1,0.1,26.8,0,27.2l-0.2,0.6
		L754.5,559.8z M756.5,535.3v22.3l49.1-4.4c0.6-2.2,2.5-10.5-0.2-25.2C802.5,525.8,779.4,510.1,756.5,535.3z"/>
</g>
<g>
	<path class="st5" d="M745.3,565.2l14.8,24.2c0,0,10.1,4.9,23.5,2.5c13.4-2.5,24.3-11.1,24.3-11.1l10-26.7
		C817.9,554.2,790,530,745.3,565.2z"/>
	<path class="st1" d="M775.9,593.6c-9.5,0-16-3.1-16.3-3.3l-0.3-0.1L744,565l0.7-0.5c12.9-10.2,32.7-21.7,53.8-19
		c12.7,1.7,19.8,7.7,20.1,7.9l0.5,0.5l-10.4,27.6l-0.2,0.2c-0.5,0.4-11.2,8.8-24.7,11.3C781,593.4,778.3,593.6,775.9,593.6z
		 M760.7,588.7c1.6,0.7,10.9,4.4,22.6,2.3c12-2.2,22.1-9.5,23.6-10.7l9.7-25.7c-1.8-1.4-8.4-5.7-18.6-7c-20-2.6-38.9,8.3-51.5,18
		L760.7,588.7z"/>
</g>
<path class="st1" d="M760,589.4c0,0,10.1,4.9,23.5,2.5c13.4-2.5,24.3-11.1,24.3-11.1S789.2,570.6,760,589.4z"/>
<g>
	<path class="st6" d="M776.4,587c0,0-1.2,18,2.3,21.7c3.5,3.7,26.9,15.2,19.1,26.2c-7.8,11.1-18.5,14.8-27.9,9.8
		c-9.4-4.9-13.5-12.7-9.8-23.8c0,0-10.3,10.3-4.5,19.7c5.7,9.4,18.5,18,34.5,12.7c16-5.3,20.1-18,17.9-27.9
		c-2.3-9.8-7.6-14.4-13.4-18c-5.7-3.7-9-9-7-17.6C789.6,581.2,776.4,587,776.4,587z"/>
	<path class="st1" d="M780.3,656c-11.4,0-20.7-6.7-25.7-14.8c-6.1-10,4.2-20.5,4.7-20.9l3-3l-1.3,4c-3.3,10-0.2,17.6,9.4,22.6
		c9,4.7,19.2,1,26.6-9.5c1.2-1.7,1.6-3.5,1.3-5.4c-1.1-6.1-9.8-12.1-15.5-16c-2.2-1.5-3.9-2.7-4.8-3.6c-3.7-3.9-2.7-20.6-2.5-22.5
		l0-0.6l0.6-0.2c0.8-0.4,8.3-3.5,11.4-0.9c1.2,1,1.6,2.7,1,5c-1.7,7.3,0.3,12.6,6.5,16.6c5.4,3.5,11.3,8,13.8,18.7
		c2.4,10.6-2.3,23.7-18.5,29.1C786.9,655.5,783.5,656,780.3,656z M758,625.3c-2.4,3.6-4.9,9.5-1.6,14.9c5.9,9.7,18.5,17.2,33.3,12.3
		c10.8-3.6,20.3-13.3,17.2-26.7c-2.3-9.9-7.9-14.2-12.9-17.4c-6.9-4.4-9.3-10.6-7.4-18.7c0.3-1.5,0.2-2.5-0.4-3
		c-1.5-1.3-5.9-0.1-8.8,1c-0.4,7.1-0.2,18,2,20.4c0.7,0.7,2.4,1.9,4.5,3.3c6,4.1,15.1,10.4,16.3,17.3c0.4,2.4-0.1,4.7-1.6,6.9
		c-8.1,11.4-19.2,15.3-29.2,10.2C760.5,641.1,756.6,634.1,758,625.3z"/>
</g>
<g>
	<path class="st2" d="M540.5,457.4c0,0-11.5-1.6-16,2.5s-4.1,9.8-4.1,9.8s-13.1,0-18-9.4c-4.9-9.4-13.1-12.3-13.1-12.3
		s4.4-11.9,13.5-16.8c9.8-5.3,20.9-5.7,37.3-1.6L540.5,457.4z"/>
	<path class="st1" d="M520.4,470.7c-0.6,0-13.8-0.1-18.9-10c-4.7-9-12.5-11.8-12.6-11.8l-1-0.3l0.4-1c0.2-0.5,4.6-12.3,14-17.3
		c10-5.4,21.3-5.9,38-1.7l0.7,0.2l0.4,29.8l-1.2-0.2c-0.1,0-11.1-1.5-15.2,2.2c-4.1,3.7-3.8,9-3.8,9l0.1,1.1L520.4,470.7z
		 M490.5,447.4c2.4,1.1,8.6,4.5,12.7,12.4c3.8,7.3,13.1,8.6,16.2,8.8c0.1-2,0.8-6.2,4.4-9.5c4-3.6,12.5-3.2,15.7-2.8l-0.4-26
		c-15.8-3.8-26.5-3.3-35.9,1.7C495.9,435.9,491.7,444.6,490.5,447.4z"/>
</g>
<g>
	<path class="st2" d="M505.7,560.7c-17.2-6.9-27.4-16.8-16.5-37.3c10.8-20.5,34.2-12.7,34.2-12.7l9.8,7
		C533.2,517.7,523.4,568.5,505.7,560.7z"/>
	<path class="st1" d="M509.4,562.5c-1.3,0-2.7-0.3-4.1-0.9c-11.5-4.6-18-9.9-20.5-16.7c-2.2-6.1-1.1-13.3,3.5-22
		c11.1-21,35.2-13.3,35.4-13.2l0.3,0.1l10.4,7.3l-0.1,0.6c-0.3,1.5-7.2,36.7-20.3,43.5C512.4,562.1,510.9,562.5,509.4,562.5z
		 M513.2,510.2c-0.9,0-1.8,0-2.8,0.1c-9.2,0.8-16,5.3-20.3,13.5c-4.3,8.1-5.4,14.8-3.4,20.4c2.3,6.2,8.4,11.1,19.4,15.5l0,0
		c2.4,1,4.6,1,6.9-0.2c11.3-5.9,18.1-36.7,19.1-41.5l-9.2-6.5C522.2,511.4,518.2,510.2,513.2,510.2z"/>
</g>
<g>
	
		<ellipse transform="matrix(9.240837e-02 -0.9957 0.9957 9.240837e-02 -66.7466 1019.4031)" class="st7" cx="525.8" cy="546.3" rx="30.1" ry="24.1"/>
	<path class="st1" d="M524.9,577.4c-0.6,0-1.3,0-1.9-0.1c-13.8-1.3-23.7-16.2-22.1-33.3c0.8-8.2,4.1-15.7,9.3-21.1
		c5.3-5.5,11.8-8.1,18.6-7.5c13.8,1.3,23.7,16.2,22.1,33.3l0,0c-0.8,8.2-4.1,15.7-9.3,21.1C536.7,574.7,530.9,577.4,524.9,577.4z
		 M526.8,517.3c-5.5,0-10.8,2.4-15.2,7c-4.9,5.1-8,12.2-8.7,19.9c-1.5,16,7.6,29.9,20.3,31.1c6.1,0.6,12.1-1.9,16.9-6.9
		c4.9-5.1,8-12.2,8.7-19.9c1.5-16-7.6-29.9-20.3-31.1C527.9,517.3,527.4,517.3,526.8,517.3z"/>
</g>
<circle class="st1" cx="695.5" cy="476.5" r="16.7"/>
<g>
	<path class="st8" d="M680.7,480.9c0,0,16.4,5.5,11.5,32.8c-4.9,27.3-19.7,51.4-19.7,51.4L683,571c0,0,19-29.8,20.7-49.3
		c1.6-19.5,2-29.7-7.4-45.9c-3.6-6.1-11.2-11.9-11.2-11.9s-3.8,3-5.1,8.1C678.8,477.1,680.7,480.9,680.7,480.9z"/>
	<path class="st1" d="M683.4,572.3l-12.2-6.8l0.5-0.9c0.1-0.2,14.7-24.2,19.6-51.1c4.7-26.1-10.2-31.5-10.8-31.7l-0.4-0.1l-0.2-0.4
		c-0.1-0.2-2.1-4.2-0.8-9.6c1.4-5.3,5.2-8.5,5.4-8.6l0.6-0.5l0.6,0.5c0.3,0.2,7.9,5.9,11.5,12.2c9.6,16.5,9.2,26.7,7.5,46.5
		c-1.6,19.5-20,48.5-20.8,49.7L683.4,572.3z M673.9,564.7l8.8,4.9c3-4.9,18.6-30.8,20-48c1.6-19.3,2-29.3-7.3-45.3
		c-2.8-4.9-8.4-9.5-10.3-11.1c-1,1-3.2,3.5-4.1,7c-1,3.8,0.1,6.9,0.5,7.8c2.6,1.1,16.3,8.4,11.7,33.8
		C688.8,538.2,676.6,560.1,673.9,564.7z"/>
</g>
<g>
	<path class="st1" d="M314.5,351.4c-0.1-0.6-0.1-1.1,0-1.5c0.4-1.4,1.4-2.2,3.2-2.2L316,341l4.3-9.8l1.4-0.8l3-5.5
		c2.9-2.3,5.1-4.9,6.7-8c1.1,0.3,2.7-1,5-3.8l3.8-1.4c1.2-0.1,3.2,1.8,6,5.6l3.7,7.9l0.4,9.3c-0.4,2.9-2.7,4.4-6.9,4.5
		c-1.7-0.8-2.2-2.1-1.8-3.9l1.2-2.5l3.3,2.6c1.1-1.2,1-4.5-0.2-9.9l-2.7-0.7c-1.1,1.3-2.7,1.7-4.8,1.1l-2.2,1.7l-1.2,6.5l-7.3,8.5
		l-0.6,2.1c-4.1,4.9-6.3,8.7-6.4,11.5l-1,12.4l1,0.8c-0.8,4.3-0.5,7.5,0.9,9.4l7.9,15.7l8.2,1.6l4.2-0.6l5.6,3.2l5.3-5.5l6.4-0.1
		l14.6-3.6l2.6,0.7l2.9-2l13.4-3.4c0.2-2.2,2.7-5.6,7.3-10.1c-0.4-0.3-0.4-0.9-0.2-1.9c0.4-1.6,1.7-4.3,3.8-8.1
		c1.2-4.7,0.5-8.3-2.2-10.8l-12.3-5.6c-1,0.2-1.8,0.2-2.4,0c-0.5-0.1-0.8-0.4-0.8-0.9l-1.6-2.7l-2.3,1.7l-7-1.2l-2.1,10.2l-4.1,9.3
		l3.5-0.3c1.4,0.4,2.1,1.3,2.1,2.8c-1,2.5-2.7,3.8-5,3.9c-2.5-0.6-4.7-4.5-6.7-11.5l-0.8-7.7c0.1-2.2,1.7-6.2,4.7-11.9
		c0.4-1,0.8-1.9,1-2.8c0.7-2.7,0.9-5,0.5-7.1l2.3-2.2l4.2,1.1l6.4,3.9l15.3,5l5.6,7.2l7.8,15.9l2,7.8l1.9,4l-0.8,3.2l-2,1.2l0.5,4.7
		l-2.3,6.3l-2.7,1.6l-3.5,4.8l-6.8,4c-1-0.6-3.1,0.2-6.3,2.3l-3.1-1.3c-0.5,1.7-2.5,3.3-6.3,4.6l-4.7,0c-2,1.2-3.5,1.6-4.5,1.4
		c-0.3-0.1-0.6-0.3-0.9-0.5L365,408l-4.5-0.5l-7.8,2l-4.4-1.1c-3.9,1.7-7.9,1.2-12.1-1.4l-6-5.7l-6.4-8.5c-0.2-1.9-1.9-5-5-9.3
		C314.4,369,313.1,358.3,314.5,351.4z"/>
	<path class="st1" d="M385.7,304.1c0.6-0.5,1.1-1,1.4-1.5c0.6-0.9,0.7-2,0.3-3.2l1.9-3.1l1.5-0.9l6-7.6c0.7,0.3,1.6-0.3,2.4-1.7
		l0.2-1.8c2.2-2.1,4.3-4.7,6.3-7.8l0-1.4c0.7-0.7,1.3-1.4,1.8-2.2c2.1-3.4,3.3-7.8,3.4-13.1l1.6-1.3l1.6,1.9
		c-0.7,0.2-0.2,4.4,1.5,12.6c-0.8,1.8-1,2.9-0.6,3.1c-0.7,0.7-1.3,1.3-1.7,2c-0.9,1.5-1.2,2.9-0.9,4.3c-2.1,2.9-3.8,5.4-5.1,7.3
		c-1.2,1.9-1.9,3.3-2.2,4.2c-1.6-0.4-3.6,0.9-5.9,3.9l-4.4,6.1l-1.8,0.9l-4.5,5.7l0.6,4.6c-0.9,0.9-1.6,1.3-2,1l-1.1-1.6l-1.1-6.9
		C386.1,306,386.4,304.8,385.7,304.1z"/>
	<path class="st1" d="M406,215c0.4-0.5,0.8-1,1.2-1.4c1.2-1.1,2.2-1.6,3.2-1.4l2.1,3.6l5.9,5.2l1.2,2.8l4.7,3.8l2.8,6.8l8.6,7.2
		c1.6,1.6,2.1,3.2,1.6,4.7l1.2,1.2l2-2l3.6-17c0.5-1.3,1.1-2.4,1.9-3.2c1.8-1.8,4.2-2,7.2-0.4c1.6,2.1,3.1,3.8,4.3,5.1
		c1.3,1.3,2.5,2.3,3.5,2.8c-0.2,1.9,3.2,5.6,10.2,11.2c1.9,0.8,2.5,1.7,2,2.7c-0.5,0.5,1.9,1.6,7.2,3.2l2.4-2.4
		c-0.5-2.7,0.6-4,3.2-3.9l0.8,2.3l-1.1,10.6l-1.4,5.4c-2.6,2.1-5.2,2.5-7.7,1.1l-7.1-4l-2.7-0.4l-7.9-8c-0.6-3.3-1.6-5.1-3.2-5.6
		l-3.2-0.8l-2.8-3.6l-3.2-0.8l-1.6,1.5l-2.4,8.7l1.1,3.6l6.3,7.1l9.5,7.2l5.2-0.4l2.4-3.1l1.7,4.8l-3.3,11.1
		c-2.9,2.9-8.3,2-16.2-2.8l-7.5-9.2c-0.2-2.9-0.9-4.4-2-4.4l-3.1-1.7l-1.6-3.1l-7.5-6.9l-3.1-5.5c-3-3.5-5.1-4.8-6.4-4
		c-2.1-1.7-3.1-3.1-2.9-4.4l-3.9-3.9l-3.5-1.3l-1.3,1.3l1.2,2.6l-2.7,1.3c-1.9-2.4-2.5-4.9-2-7.5l1.2-2.1L406,215z"/>
	<path class="st1" d="M482.2,202.3l4.1-2.9l1.6,1.6c2.8-1.9,4.5-2.7,5.3-2.4c1.9-0.1,4.3,1.2,7.4,4c0.6,1.8,2.9,4.1,6.7,6.8l2.8,6.5
		c0.8,12.3-0.9,21.9-5,29.1c-0.8,1.3-3.2,2.7-7.4,4.3c-1.6,0-2.8-0.8-3.5-2.1c-4.7-0.3-8.4-1.8-11.2-4.3l-0.3-2l-5.5-7l-0.1-6
		c-1.5-1.1-1.3-6.1,0.5-14.7L482.2,202.3z M489.1,232.1l1.5,1.7l12.2,2.7l2.5-2.2l2.3-5l-7.8-10.4l0.1-1.6l-1.8-2l-4.8-0.3l-3.8-2.6
		c-1.2,2.1-3.2,2.3-6,0.8l-4.3,5.3c2,1.7,2.4,3,1.3,3.9C485.9,227.3,488.7,230.5,489.1,232.1z"/>
	<path class="st1" d="M511.6,181.7c2.2-0.5,4.1,0.1,5.7,1.9c0.8,2.9,0.9,4.5,0.2,4.8l0.9,2l2.7,0.7l-0.2,3.7l2.9,2.4l3.1,8.5
		l-0.9,2.2l6.4,7.6l3.3,0.9c1.2-0.4,2.3-0.8,3.1-1.2c2.5-1.1,3.8-2,3.7-2.9l4.5-9.4c-2.1-4-2.4-6.2-1-6.9c-0.3-1.5-1.1-2.3-2.4-2.6
		c0.1-1.7-0.4-3.8-1.4-6.3c-1.1-2.5-2.8-5.4-5-8.6l-2.6,1.1l-1.5,3.6l0.2-3.7c1.1-0.5,2.2-2.8,3.2-6.9c0.1,0,0.2-0.1,0.5-0.2
		c0.9-0.4,2.3-1.8,4.3-4.4c4.1-1.8,6.5-1.8,7.2-0.2l1.1,2.6l-0.9,2.2c0.7,0.6,1.3,1.4,1.8,2.5c0.7,1.7,1.1,4,1,6.9
		c2.5,3.8,3.8,7.3,4,10.5c2.2,5.1,4.8,8.7,7.7,10.7l2.8-1.9c1-4.1,2.1-5.9,3.1-5.5l0.9,2c-1.4,6.4-3.3,12.1-5.9,17.1
		c-3.3,1.4-6.4,0.8-9.2-1.9l-4.5-7.2l-2.3,3.2c-1.8,4.4-3.3,7.1-4.5,8.1l-0.4,2l-8.5,8.5l-6.8-0.1l-3.9-1.9l-0.9-5l-4.8-5.3
		c0.8-2,0.8-4.1-0.3-6.5l-2.7-1.9c-0.3-2.7-1.6-5.1-3.7-7l-1.2-4.4l-2.7-1.9c-0.6,0-1.1,0.1-1.6,0.3c-1.3,0.5-2.2,2.3-2.8,5.3l2-8.1
		l4.5-8L511.6,181.7z"/>
	<path class="st1" d="M572.2,197.3l3.4-1.3l5.4,2.6l6.9-0.3l3.1,1.7l8.1,0.5l1.1-3.9l-3.7-4l-4.4-1.5l-1.8-3.6
		c-3.5,1.5-5.7,1.9-6.7,1.4c-2.4-1.4-5.7-1.9-10-1.5l-4-3.1l-0.5-5l1.3-2.1c0-1.8-0.6-3-1.8-3.6c-0.5-2.6-0.3-5.6,0.7-9.1
		c1.9-4.5,6.6-7.5,14.2-9c1.3-0.3,2.7-0.5,4.2-0.7l7.8-1c5.9,0.7,9.8,2,11.7,3.9l-2.6,4.9c-1.1,0.5-1.6,1.7-1.5,3.7
		c0.1,2.4,0.1,3.8-0.1,4.2c-1,0-2.3-2-4.1-6c-4.2,0.8-7.2,0.5-9-0.9l-8.7-2.7l-6.2,2.6l-3.2,4.9l6.2,7.4c0.1,0.4,1.9,0.8,5.5,1.3
		l1.6,2.6l6.8-0.8l2.1,1.9c7.7,0.3,12.1,3.2,13.2,8.8c0.3,1.4,0.4,3,0.3,4.7l-3,6.6l-12,7.1l-13.2,2.1l-10.1-3.7
		C570,202.1,571,199.2,572.2,197.3z"/>
	<path class="st1" d="M634.5,148.4l7.9,0.4c5.7,2.4,8.6,4.4,8.7,5.9l-0.5,3.9l-6.5,8.2l-3.9,2.3l-4.4,4.6l-6.6,2.5
		c-0.3,1.7-0.4,3.4-0.4,5c0.2,5.4,2.1,10,5.9,13.9l4.5-1.2l5-4.1c0.2-3.4,0.9-5.4,2-5.7c1.8,0.3,2.7,0.9,2.8,1.7
		c0.5,1.5,0,3-1.4,4.5l-9.9,9.8l-5,2.3l-7.3,0.2c-0.5-1.1-1.8-1.6-4-1.6l-4.1-3.7c1.2-1.6,0.5-4.6-1.9-9c1.1-0.5,1.5-1.6,1.1-3.5
		c-1.9-0.3-3.1-1.7-3.5-4.3l-0.3-9.7l2.7-4.1l-0.1-3.9l2.8-2.4l0.9-2.7l5.5-5.8L634.5,148.4z M624.9,169.5l0.7,2.8l2.2-0.1l8.3-6.4
		L636,162l-2.9-3.4l-3-0.9l-3.3,0.6L624.9,169.5z"/>
	<path class="st1" d="M690.1,168.9l2.6-5.2l12.6-5.8c3.4,0.5,4.3,4,2.6,10.4l-2.6,3.2l0.2,1.4l2.1,0.6l6.9-4l9.7-3
		c2.4,0.6,3.9,2.6,4.6,5.8c0.7,3.2,1.3,5.4,2,6.6c-1.5,1.4-2.5,3.7-3,7.1l-2.2,1.9c0.3,0.6,0.3,1.3,0.1,2.2
		c-0.7,2.7-3.7,6.7-9.1,12.3l-11.7,6.6c-0.2-0.3-0.5-0.5-0.9-0.6c-1.2-0.3-3.1,0.2-5.8,1.4l-2-1.2l-1.3,0.3
		c-0.1,3.4-0.7,5.2-1.9,5.2l-0.5,6.4c-4.3,8.6-7.4,14.1-9.2,16.4l-4.5,2.9l-4.3,2.3c-3.9,0.7-7,2.2-9.3,4.4l-3.5-0.9
		c2.8-2.5,5-4.6,6.8-6.5l3.5-1.7c1.1-2.5,2.2-4.3,3.3-5.4l1.5-3.1l1.8-5l3.5-10.8l0.2-5.4l4-10.7l1.7-9.1l2.7-9.8
		c1.1-0.4,1.8-1.7,2.2-3.9l1.1-6.8l-1.6-0.4L690.1,168.9z M698.7,194.2l-1.1,4.1l0.5,2.8l-1.6,4.1c0.5,0.3,1.1,0.6,1.7,0.7
		c1.7,0.4,3.1-0.1,4.4-1.6l7.6-6.5l1.9-5.2l0.4-3.7l3.6-2.9l0.5-1.9l-1.2-1.5c1.1-4.1,0.3-7.1-2.4-9l-6.6,0.8l-2.7,10.2l-1.3,0.3
		l-1.4,8L698.7,194.2z"/>
	<path class="st1" d="M755.3,168l2.8,2c-1.7,2.5-2.8,4.5-3.4,6c-0.5,1.1-0.7,2-0.7,2.6l-1.8,1.1l-0.9,2c0.6,0.1,1,0.3,1.1,0.7
		c0.1,0.4,0,0.9-0.3,1.5l-3.4,2.2l-1.3,2.5c0.6,0.1,1,0.3,1.2,0.7c0.2,0.4,0.1,0.9-0.3,1.5l-7,12.3l0.5,1.5
		c-2.3,5.6-3.1,8.7-2.5,9.3c0.8,0.9,2.8,1.2,5.7,0.9l1.8-2.3l1.2,1.2l-6.7,2.4c0.1,0.2,0.1,0.4,0.1,0.5c-0.4,1-2.9,2.1-7.5,3.5
		l-7.3-0.2c-1.8-2.1-2.3-3.8-1.4-5.1c2.8-3.9,4-7,3.8-9.3c1.5-1.3,4.7-8.7,9.8-22c1.9,0.4,3-0.6,3.2-2.9l-1.3-2.5
		c1-1.2,1.7-2.2,2.1-3.2c0.3-0.7,0.4-1.3,0.2-1.9c-0.5-0.7-2.6-0.2-6.2,1.4l-1.1,3.8l-2.3-1.8c1.2-2.5,3.9-4.3,8.2-5.4l11.9-3.1
		L755.3,168z M759,150.6c1.9,0.4,2.8,1.2,2.6,2.5l-4.5,2.9c-3.8-0.6-7.5-0.1-11.1,1.4l-2.4-1.7L759,150.6z"/>
	<path class="st1" d="M777.8,185.1c3.6,1.3,5.1,3.2,4.4,5.9l-2.3,3.9c-1.3-0.2-2.2,0.1-2.8,1.2c-0.4,0.7-0.6,1.5-0.8,2.5l1.9,1.1
		l3.3-2l11.8-0.2l6.2,1.7l5.2,5.6l0.7,6.4c-3.6,3.9-9.9,6.3-18.6,7.2l-1.1-1.4c2.7-0.1,4.5-1.4,5.6-3.9l1-7.2l-6.8-6l-3.5-0.9
		l-5.1,3l-2.7,0.3c-1.3,1.4-1.6,2.8-1,4l-2.6,1l-3.7,5c1,0.6-0.4,4.1-4.2,10.6l0.2,4l2.9,1.7c0.6-1,1.3-1.2,2.3-0.6
		c0,0.4-0.1,0.7-0.3,1c-1.2,2.1-6.9,2.2-16.9,0.5c-2.4-0.9-3.2-2.9-2.3-5.9l3.6-3.7c-1.4-1.4-0.9-3.7,1.4-6.9l7.9-11l5.1-10.8
		l-0.5-3.4l-2.4-1.4l-6.4,2C762.2,185.5,769.2,184.4,777.8,185.1z"/>
	<path class="st1" d="M831.3,225.3l3.7,4.2l4.1,1.4l3.6,7.7l-1.3,4l-4.6,2.6l-7.5,9.9c-2.3,2-4.2,3.9-5.7,5.6
		c-1.6,1.8-2.8,3.4-3.7,4.8c0.4,0.6,0.8,1,1.1,1.3c1.5,1.4,3,1.3,4.3-0.1c0.3-0.4,0.7-0.9,0.9-1.4c1.4,0.7,1.8,1.7,1.1,3l-2.2,2.5
		l-4.4,0.7l-1.5,1.6l-6.4,0.3l-3.6-1l-1.8-3l0.3-4.4c-6.4-1.4-11.7-3.9-15.8-7.6l-2.8-6.9l2.2-2.5c-2.3-3.1-2.6-6.4-1-9.9l4.5-4.2
		l0.6-4.9l5.3-4.2c2.9,0.2,6-0.8,9.3-2.9c3.5,0.6,6.6,0.6,9.2,0L831.3,225.3z M810.7,227.9l-2.7,3l-0.2,2.7
		c-1.9,0.4-3.3,1.2-4.3,2.3c-3.2,3.6-3,9.9,0.6,18.9c0.7,1.8,1.5,3.1,2.4,3.9c1.4,1.3,2.9,1.1,4.4-0.5c4.9-6.6,9.6-11.4,14.1-14.3
		c-0.9-1.3-0.2-3.2,2.1-5.8l-2-7l-7.4-6L810.7,227.9z"/>
	<path class="st1" d="M868.4,259.1c1.1,0.6,1.4,1.8,1,3.6c-0.9,0.3-1.6,0.6-2.1,1c-1.3,1-1.6,2.6-1,4.8c3.4,3.2,5.8,5.8,7.3,7.7
		c0.8,1.1,1.3,1.9,1.4,2.5l4.6,2l0.1,0.6l-1.8,0.9l-2.5,1.4l-5.5-0.4l-3.5-4.5c-2.9-0.5-4.9-1.9-6-4.3l-3.2-0.3l-3.3,1.4l-3,2.7
		l-3.3,0.4c0,0.7-0.6,1.5-1.8,2.4c-0.8,0.6-1.9,1.3-3.3,2.1l-0.1,1.6l-7.2,5.5l-1,2.4l2.9,3.3l5.1,0.1l0.7,1.6
		c-2.3,2-5.5,2.8-9.8,2.5l-7.6-5.4l-2.9-7.8l4.1-6.4l3.6-0.8l5.3-6l1.5,0l6.3-4.7l2-3.8l4.1-2.9l-5.1-6c-0.1-1.9,0.8-2.8,2.5-2.7
		l0.7,0.9l7.3,1l1.4,3.5l2.6-3.2L868.4,259.1z"/>
	<path class="st1" d="M897.2,303.8l3.2,7.2c0.4,6.2-0.1,9.7-1.4,10.4l-3.7,1.3l-10.2-2.1l-3.8-2.5l-6.1-1.8l-5.2-4.8
		c-1.7,0.5-3.2,1.2-4.7,1.9c-4.8,2.6-8,6.4-9.7,11.5l3,3.5l6,2.6c3.2-1.3,5.2-1.6,6-0.8c0.5,1.8,0.4,2.8-0.3,3.2
		c-1.2,1.1-2.7,1.4-4.7,0.8l-13.2-4.4l-4.3-3.4l-3.5-6.5c0.8-0.9,0.6-2.3-0.4-4.3l1.5-5.3c1.9,0.3,4.3-1.6,7.1-5.7
		c0.9,0.8,2.1,0.6,3.6-0.6c-0.6-1.8,0.2-3.5,2.3-5l8.5-4.6l4.9,0.6l3.4-1.8l3.4,1.4l2.9-0.4l7.7,2.3L897.2,303.8z M874,304.7
		l-2.2,1.9l1,1.9l9.5,4.6l3.4-1.8l1.7-4.1L887,304l-2-2.7L874,304.7z"/>
	<path class="st1" d="M968.1,356.7c0.2,3,0.6,5.5,1.2,7.5c0.5,2.1,1.2,3.7,2,4.8c0.4,3.4,0,6.5-1.3,9.3c1,0.8,0.8,3.7-0.8,8.8
		l-2.5,1.7c-7.4,0.1-12.9-2.1-16.4-6.6c-2-4.6-1.7-7.3,0.9-7.9l3.3,0.3l0.2,5.3l1.5-1l2.1-5.7l0.9-15.3l-5.3-15.9l-5.9-8.4l-7.2-2.1
		l-4.5,1.2l-2.3,7.5l-2.9,3.2c0.7,5.6,0.2,8.6-1.2,9l-3.1,2.5c0.8,2.9,0.4,6.3-1,10.1l-3.5,5.6c-1.3,13.9-3.6,24.9-7.2,33.1
		l-6.7,6.9l-5,1.3c-5.1-1-8-1.9-8.7-2.9l-8.7-5.3l-13.5-14.4l-3.9-8.3c-1.2-7.8-1.3-11.9-0.3-12.5l-1.2-2.6c-0.4-3,0.5-5,2.7-6
		l-1.9-4.6l2-8.6c0.7-2.1,3.4-5.6,8.2-10.3l6.9-1.8l8.6,2.4c3.5,2.9,5.4,4.9,5.7,6c1.5,3.9,1,6.5-1.5,8c-3.4,0.9-5.3,0.6-5.7-0.9
		c0.2-0.8,0.3-1.4,0.2-1.9c-0.1-0.4-0.4-0.7-0.9-0.8c-0.9-0.5-2.4,0.9-4.4,4.1l-5,13.5l0.8,3.2l-1.8,2.7l-0.2,12.8l3,9.1
		c0.8,1.7,3.6,3.8,8.2,6.1l4.9,0.3l4.3-2.3l1.9,0.2l2.6-13.5l2-1.7c0.8-4.8,1.3-7.3,1.7-7.4l1.5-10.8l2.8-3.7
		c-0.5-0.5-0.8-1.1-1-1.7c-0.2-0.9-0.2-2,0.2-3.2l1.7-3.4l-0.6-2.2l3-9.3l3.7-2.3l0.9-1.3c-1.4-0.4-2.1-1.8-2.3-4.1
		c2.9-7.8,5.3-11.5,7.3-11.2l5.8-1.5c3.7,0.2,7.1,1.4,10.2,3.7c7.7,4.6,13.3,10,16.8,16c4.4,7.3,6.5,12.1,6.3,14.6L968.1,356.7z"/>
</g>
<g>
	<path class="st1" d="M537.9,741.4h55l0,9.2l-27.5,18.3h9.2c5.2,0,9.6,2,13.1,6c3.5,4,5.2,8.1,5.2,12.3v18.4c0,5-1.8,9.3-5.4,12.9
		c-3.6,3.6-7.9,5.4-12.9,5.4h-18.4c-10.8,0-16.9-6.1-18.3-18.3h9.2c0.4,6.1,3.5,9.1,9.1,9.1h9.2c2.5,0,4.6-0.9,6.5-2.7
		c1.8-1.8,2.7-3.9,2.7-6.4v-18.4c0-1.4-0.8-3.3-2.3-5.6c-1.5-2.3-3.8-3.5-6.9-3.5h-18.3v-9.2l27.5-18.3h-36.7V741.4z"/>
	<path class="st1" d="M611.2,741.4h55l0,9.2h-36.7v18.3h18.4c5,0,9.3,1.8,12.9,5.4c3.6,3.6,5.4,7.9,5.4,12.9v18.4
		c0,5-1.8,9.3-5.4,12.9c-3.6,3.6-7.9,5.4-12.9,5.4h-18.4c-10.8,0-16.9-6.1-18.3-18.3h9.2c0.4,6.1,3.5,9.1,9.1,9.1h9.2
		c2.5,0,4.6-0.9,6.5-2.7c1.8-1.8,2.7-3.9,2.7-6.4v-18.4c0-2.5-0.9-4.6-2.7-6.4c-1.8-1.8-4-2.7-6.5-2.7h-27.5V741.4z"/>
	<path class="st1" d="M712,823.9v-27.5h-36.7v-9.2l36.7-45.8h18.3v45.8h9.2v9.2h-9.2v27.5H712z M712,787.2v-34.4l-27.5,34.4H712z"/>
</g>
<g>
	<path d="M645.3,389.7c11.6,0.1,20.6,4.7,28,12.9c3.9,4.4,6.7,9.4,7.8,15.3c0.1,0.7,0.2,1.5,0.3,2.2c0.2,1,0.3,2,0.7,2.9
		c1.1,2.1,1.4,4.4,1.9,6.7c1,4.6,0.5,9-0.9,13.4c-0.6,1.9-0.7,4-1,5.9c-0.1,0.5-0.2,1-0.3,1.5c-0.4,1.4-1.3,2.3-2.7,2.7
		c-1.4,0.4-2.8,0.6-4.2,1c-3.5,1-6.5,2.8-8.3,6.1c-0.9,1.7-1.3,3.7-1.9,5.5c-0.3,0.9-0.5,1.9-0.7,2.8c-0.6,2-1.9,2.9-3.9,2.6
		c-1.1-0.1-2.2-0.4-3.3-0.7c-0.9-0.2-1.6-0.2-2.3,0.3c-0.7,0.5-1.5,0.5-2.2,0.1c-1-0.6-2-0.4-3,0.1c-1.6,0.8-3.2,1.3-4.9,0.5
		c-0.2-0.1-0.6,0-0.8,0c-1.6,0.4-3.1,0.6-4.6-0.1c-0.2-0.1-0.5-0.1-0.6,0c-1.7,0.8-3.3,0.6-4.9-0.1c-0.5-0.2-1.1-0.2-1.6-0.1
		c-3.5,0.8-6.6-1.2-6.5-5c0.1-2.5-0.4-4.9-1.5-7.1c-0.5-1-1.2-1.6-2.3-1.9c-5.6-1.6-9.6-5.1-12.2-10.2c-0.5-1-0.6-2.3-0.7-3.5
		c-0.2-3.4-0.4-6.9-0.6-10.3c-0.1-0.9-0.3-1.9-0.3-2.8c-0.3-2.8,0.5-5.3,2.1-7.5c1.9-2.7,3.1-5.5,3.6-8.8c0.9-5.2,4-9.5,7.7-13.2
		c3-3.1,6.4-5.8,10.2-7.8c3.3-1.8,7-2.7,10.8-3.1C643.2,389.8,644.5,389.8,645.3,389.7z M632.9,458.9c-1.4,0.2-2.6-0.1-3.6-0.9
		c-1-0.8-2.1-0.9-3.3-0.6c-0.8,0.2-1,0.6-0.6,1.4c0.4,1,1,2,1.2,3.1c0.3,1.4,0.3,2.9,0.4,4.4c0.1,2.6,1.7,3.8,4.3,3.3
		c0.8-0.2,1.3-0.6,1.7-1.3c0.3-0.8,0.7-1.7,1.1-2.5c0,0.7-0.1,1.4,0,2.2c0,0.4,0,1,0.3,1.3c0.9,1.1,3.6,0.6,4.1-0.8
		c0.5,1.4,1.4,2,3,1.8c0.7-0.1,1.5-0.4,1.8-0.9c0.4-0.5,0.3-1.3,0.4-2.3c0.1,0.7,0.2,1.2,0.2,1.6c0,0.7,0.3,1.1,1,1.3
		c0.5,0.1,1,0.2,1.5,0.2c1.9,0,2.8-0.9,2.8-2.8c0-0.8,0-1.5,0-2.3c0,0,0.1,0,0.1,0c0.3,1.3,0.6,2.6,1,4.1c1.2,0,2.4,0.1,3.6,0
		c1.4-0.1,1.9-0.9,2-2.2c0.1-0.7,0.3-1.3,0.4-1.9c0.1,1.1,0.1,2.2,0.1,3.3c0,0.2,0.2,0.6,0.4,0.6c1.2,0.3,2.5,0.6,3.8,0.7
		c1.2,0.1,1.8-0.5,1.6-1.7c-0.4-3.6-0.9-7.1-3.1-10.2c-0.1-0.2-0.3-0.4-0.3-0.6c-0.1-0.2-0.1-0.5,0-0.7c0.1-0.1,0.4-0.2,0.6-0.1
		c0.7,0.2,1.3,0.4,2,0.7c2.4,0.9,4.7,0.6,6.7-1.1c0.7-0.6,1.4-1.1,2.1-1.5c2.3-1.5,5-2.1,7.7-2.6c1.6-0.3,2.3-1.1,2.5-2.7
		c0.2-1.8,0.3-3.6,0.9-5.3c1.5-4.9,2.1-9.7,0.8-14.8c-0.2-0.7-0.3-1.5-0.7-2.1c-1.4-2.5-3.8-3.8-6.4-4.8c-1.6-0.6-3.3-0.9-4.9-1.4
		c1.6-0.3,3.2-0.4,4.8,0.2c1.3,0.5,2.1-0.1,2.2-1.4c0-0.3,0-0.5-0.1-0.8c-0.3-1.6,0-3,0.6-4.4c0.3-0.6,0.2-1,0-1.6
		c-1.4-3.2-3.4-6.1-5.7-8.7c-6.6-7.3-14.7-11.7-24.6-12.1c-8-0.3-15.1,1.9-21.3,7.1c-4.5,3.8-8.4,8-10.4,13.6
		c-0.7,2-1.2,4.1-1.1,6.4c0.6-0.1,1.2-0.2,1.7-0.3c1.1-0.1,2.2-0.3,3.3-0.4c0.7,0,1.4,0.2,1.8,1c-0.3,0.1-0.5,0.1-0.8,0.1
		c-3.5,0.8-6.7,2.1-8.8,5.4c-0.4,0.6-0.7,1.2-1.3,1.7c-1,0.9-1.2,2-1.2,3.2c0,1.2,0.3,2.4,0.4,3.7c0.2,3.5,0.3,7.1,0.6,10.6
		c0.1,0.8,0.1,1.7,0.5,2.5c2,4,5,6.9,9.1,8.6c0.3,0.1,0.7,0.1,1.1,0.1c1.5-0.1,3-0.4,4.5-0.5c1-0.1,1.9,0.2,2.6,1.1
		c0.3,0.4,0.7,0.6,1.2,0.9C630.4,457.2,631.7,458,632.9,458.9z"/>
	<path class="st5" d="M632.9,458.9c-1.3-0.8-2.5-1.7-3.8-2.5c-0.4-0.3-0.9-0.5-1.2-0.9c-0.7-0.9-1.6-1.2-2.6-1.1
		c-1.5,0.1-3,0.3-4.5,0.5c-0.4,0-0.8,0-1.1-0.1c-4.1-1.7-7.1-4.6-9.1-8.6c-0.4-0.7-0.5-1.6-0.5-2.5c-0.2-3.5-0.4-7.1-0.6-10.6
		c-0.1-1.2-0.3-2.4-0.4-3.7c0-1.2,0.1-2.3,1.2-3.2c0.5-0.4,0.9-1.1,1.3-1.7c2-3.3,5.2-4.6,8.8-5.4c0.2-0.1,0.4-0.1,0.8-0.1
		c-0.4-0.8-1.1-1.1-1.8-1c-1.1,0-2.2,0.2-3.3,0.4c-0.5,0.1-1.1,0.2-1.7,0.3c-0.1-2.3,0.3-4.4,1.1-6.4c2.1-5.6,5.9-9.8,10.4-13.6
		c6.2-5.2,13.3-7.4,21.3-7.1c10,0.4,18,4.8,24.6,12.1c2.3,2.6,4.3,5.5,5.7,8.7c0.2,0.5,0.3,1,0,1.6c-0.6,1.4-0.9,2.9-0.6,4.4
		c0.1,0.3,0.1,0.5,0.1,0.8c-0.1,1.3-0.9,1.9-2.2,1.4c-1.6-0.6-3.2-0.5-4.8-0.2c1.7,0.5,3.3,0.8,4.9,1.4c2.6,0.9,5,2.3,6.4,4.8
		c0.4,0.6,0.5,1.4,0.7,2.1c1.3,5,0.7,9.9-0.8,14.8c-0.5,1.7-0.6,3.5-0.9,5.3c-0.2,1.5-0.9,2.4-2.5,2.7c-2.7,0.5-5.3,1.1-7.7,2.6
		c-0.7,0.5-1.5,1-2.1,1.5c-2,1.7-4.3,2-6.7,1.1c-0.7-0.2-1.3-0.5-2-0.7c-0.2-0.1-0.6,0-0.6,0.1c-0.1,0.2,0,0.5,0,0.7
		c0.1,0.2,0.2,0.4,0.3,0.6c2.2,3,2.7,6.6,3.1,10.2c0.2,1.2-0.4,1.8-1.6,1.7c-1.3-0.1-2.5-0.4-3.8-0.7c-0.2,0-0.4-0.4-0.4-0.6
		c0-1.1,0-2.2-0.1-3.3c-0.1,0.6-0.3,1.3-0.4,1.9c-0.1,1.3-0.7,2.1-2,2.2c-1.2,0.1-2.4,0-3.6,0c-0.3-1.4-0.7-2.7-1-4.1
		c0,0-0.1,0-0.1,0c0,0.8,0,1.5,0,2.3c0,1.9-0.9,2.8-2.8,2.8c-0.5,0-1-0.1-1.5-0.2c-0.7-0.1-1-0.6-1-1.3c0-0.5-0.1-0.9-0.2-1.6
		c-0.2,1-0.1,1.8-0.4,2.3c-0.4,0.5-1.2,0.8-1.8,0.9c-1.6,0.2-2.6-0.4-3-1.8c-0.5,1.4-3.2,1.9-4.1,0.8c-0.3-0.3-0.3-0.9-0.3-1.3
		c0-0.7,0.1-1.4,0-2.2c-0.4,0.8-0.7,1.7-1.1,2.5c-0.3,0.8-0.8,1.1-1.7,1.3c-2.6,0.6-4.2-0.7-4.3-3.3c0-1.5-0.1-2.9-0.4-4.4
		c-0.2-1.1-0.7-2.1-1.2-3.1c-0.4-0.8-0.2-1.2,0.6-1.4c1.2-0.3,2.3-0.2,3.3,0.6C630.4,458.8,631.6,459.1,632.9,458.9z M677.6,435.5
		c0-0.3,0-0.6,0-0.9c-0.3-3.8-1.6-7.2-4.7-9.6c-1.5-1.2-3.2-1.7-5-1.3c-3.5,0.9-7,1.9-10.4,3.1c-3,1.1-5,3.4-5.5,6.7
		c-0.1,0.5-0.2,1.1-0.4,1.6c-0.9,3.5,0.8,6.6,4.3,7.5c2.4,0.6,4.8,1,7.2,1.5c2.1,0.4,4.2,0.8,6.3,0.8c3,0.1,5.5-1.1,6.9-4
		C677.3,439.2,677.7,437.4,677.6,435.5z M623.1,445c4-0.5,8.6-1.2,13.2-2.4c2-0.5,3.2-1.9,3.7-3.8c0.6-2.4-0.1-4.6-0.7-6.9
		c-0.5-1.8-1.7-3.2-3.4-4.1c-1.2-0.7-2.5-1.2-3.7-1.7c-2.4-0.8-4.9-1.4-7.4-2.1c-2.9-0.9-5.3,0-7.2,2.2c-2.9,3.3-4,7.1-3.4,11.4
		C614.9,442.4,617.7,445,623.1,445z M650.1,452.5c1-0.1,1.6-0.6,2-1.3c0.4-0.7-0.1-1.2-0.5-1.7c-1-1.1-1.9-2.2-2.9-3.2
		c-1-1-2-2-3-2.9c-0.6-0.5-1.3-0.5-2,0c-2.3,1.7-3.9,3.9-4.8,6.6c-0.2,0.8-0.3,1.6,0.4,2.3c0.8,0.7,1.6,0.4,2.4,0.1
		c0.3-0.1,0.5-0.4,0.8-0.5c0.7-0.3,1.3-0.7,2-0.7c0.8,0,1.7,0.3,2.6,0.5C648,451.9,649,452.2,650.1,452.5z"/>
	<path d="M623.1,445c-5.3,0-8.2-2.6-8.9-7.5c-0.6-4.3,0.5-8.1,3.4-11.4c1.9-2.2,4.3-3,7.2-2.2c2.5,0.7,5,1.4,7.4,2.1
		c1.3,0.4,2.6,1,3.7,1.7c1.6,0.9,2.8,2.3,3.4,4.1c0.7,2.2,1.4,4.5,0.7,6.9c-0.5,1.9-1.7,3.3-3.7,3.8
		C631.7,443.8,627.1,444.5,623.1,445z"/>
	<path d="M650.1,452.5c-1-0.3-2.1-0.6-3.1-0.9c-0.8-0.2-1.7-0.5-2.6-0.5c-0.7,0-1.4,0.4-2,0.7c-0.3,0.1-0.5,0.4-0.8,0.5
		c-0.8,0.4-1.6,0.6-2.4-0.1c-0.7-0.6-0.6-1.4-0.4-2.3c0.8-2.8,2.4-4.9,4.8-6.6c0.7-0.5,1.4-0.5,2,0c1,0.9,2,1.9,3,2.9
		c1,1,2,2.1,2.9,3.2c0.4,0.5,0.9,1,0.5,1.7C651.6,451.9,651,452.5,650.1,452.5z"/>
</g>
<g>
	<path class="st6" d="M646,428l-0.4,15.4l6.6,12.8l14.4,4.2l12.9-7.1l2.5-2.7c0,0,4.6-11.3,2-20.9S663.1,411.8,646,428z"/>
	<path class="st1" d="M666.7,461.4l-15.2-4.4l-6.9-13.4l0.4-16l0.3-0.3c8.4-8,18.4-11.1,27.4-8.6c6.1,1.7,10.9,5.9,12.2,10.7
		c2.7,9.8-1.9,21-2.1,21.5l-0.1,0.2l-2.9,3L666.7,461.4z M652.9,455.3l13.6,3.9l12.4-6.8l2.3-2.4c0.5-1.4,4.2-11.6,1.9-20.1
		c-1.1-4.1-5.4-7.8-10.8-9.3c-8.2-2.3-17.4,0.6-25.2,7.8l-0.4,14.7L652.9,455.3z"/>
</g>
<g>
	<path class="st2" d="M677.6,435.5c0,1.9-0.4,3.7-1.2,5.4c-1.4,2.9-3.9,4.1-6.9,4c-2.1-0.1-4.2-0.4-6.3-0.8
		c-2.4-0.4-4.8-0.9-7.2-1.5c-3.5-0.9-5.2-4-4.3-7.5c0.1-0.5,0.3-1.1,0.4-1.6c0.5-3.3,2.5-5.6,5.5-6.7c3.4-1.2,6.9-2.2,10.4-3.1
		c1.8-0.5,3.6,0.1,5,1.3c3.1,2.5,4.4,5.8,4.7,9.6C677.7,434.9,677.6,435.2,677.6,435.5z"/>
	<path class="st1" d="M669.8,446c-0.1,0-0.2,0-0.3,0c-2-0.1-4-0.4-5.9-0.7l-0.6-0.1c-2.2-0.4-4.8-0.8-7.3-1.5c-4-1-6.1-4.6-5-8.7
		c0.1-0.5,0.3-1,0.3-1.5c0.6-3.6,2.7-6.2,6.2-7.5c3.3-1.2,6.7-2.1,10-3l0.5-0.1c2-0.5,4,0,5.9,1.4c3,2.4,4.7,5.8,5.1,10.3
		c0,0.2,0,0.5,0,0.7l0,0.3c0,2.1-0.4,4.1-1.3,5.9C675.9,444.4,673.3,446,669.8,446z M669.2,424.6c-0.4,0-0.7,0-1.1,0.1l-0.5,0.1
		c-3.3,0.9-6.6,1.8-9.8,3c-2.8,1-4.4,3-4.9,5.9c-0.1,0.6-0.2,1.1-0.4,1.7c-0.8,3,0.7,5.6,3.6,6.3c2.4,0.6,5,1.1,7.1,1.4l0.6,0.1
		c1.9,0.3,3.8,0.6,5.6,0.7c2.8,0.1,4.8-1.1,6-3.5c0.7-1.5,1.1-3.2,1.1-5l0-0.3c0-0.2,0-0.3,0-0.5c-0.3-3.9-1.8-6.9-4.3-8.9
		C671.3,425,670.3,424.6,669.2,424.6z"/>
</g>
<g>
	
		<rect x="680.5" y="428" transform="matrix(0.987 0.1605 -0.1605 0.987 79.6841 -104.2983)" class="st6" width="10.2" height="26.5"/>
	<path class="st1" d="M689.4,456.3l-12-2l4.6-28.1l12,2L689.4,456.3z M679.6,452.6l8.1,1.3l3.9-24.1l-8.1-1.3L679.6,452.6z"/>
</g>
<g>
	<path class="st5" d="M646,463.4c-3-3.1-13.6-11.4-23.4,14.1l2.1,26.7l2.1,7.4l3.5,5.7l7.6,10.7v15.6l4.1-3.7l3.7,11.7l0,2.6
		l0.4-1.3l0.4,1.3l0-2.6l3.7-11.7l4.1,3.7v-15.6l7.6-10.7l3.5-5.7l2.1-7.4l2.1-26.7C659.6,452,649,460.4,646,463.4z"/>
	<path class="st1" d="M644.6,560.6l0-8.9l-3.2-10.1l-4.6,4.2v-17.5l-7.4-10.4l-3.6-6.1l-2.1-7.6l-2.1-26.9l0.1-0.2
		c4.2-11,9.2-17.2,14.7-18.3c4.2-0.9,7.6,1.4,9.6,3.2c2-1.8,5.4-4.1,9.6-3.2c5.5,1.1,10.5,7.3,14.7,18.3l0.1,0.2l-2.1,27.1l-2.2,7.6
		l-3.5,5.7l-7.4,10.5v17.5l-4.6-4.2l-3.2,10.1l0,8.9l-1.4-4.4L644.6,560.6z M642.4,538l3.6,11.5l3.6-11.5l3.6,3.2v-13.7l7.8-10.9
		l3.4-5.6l2-7.2l2-26.3c-3.9-10.1-8.4-15.9-13.1-16.8c-3.8-0.8-7,1.7-8.5,3.3l-0.7,0.7l-0.7-0.7c-1.5-1.6-4.7-4.1-8.5-3.3
		c-4.7,1-9.2,6.8-13.1,16.8l2,26.3l2,7.2l3.4,5.6l7.7,10.9v13.7L642.4,538z"/>
</g>
<g>
	<polygon class="st5" points="646.8,452.9 642.7,452.9 626.7,457.4 615.7,472.1 613.6,521.4 623.9,485.3 624.7,494.7 628,482.4 
		632.5,475.4 634.1,479.1 644,467.6 646.8,463.1 	"/>
	<path class="st1" d="M612.3,529.8l2.4-58l11.5-15.3l16.6-4.6h5.1v11.5l-3.1,4.9L633.9,481l-1.5-3.5l-3.4,5.3l-4.7,17.7l-0.8-9.7
		L612.3,529.8z M616.7,472.5l-1.7,40.4l9.4-33.2l0.8,9.2l1.9-7.1l5.5-8.5l1.7,3.9l8.8-10.2l2.7-4.2v-9h-3l-15.5,4.4L616.7,472.5z"/>
</g>
<g>
	<polygon class="st5" points="646.8,452.9 650.9,452.9 666.9,457.4 678,472.1 680.1,521.4 669.8,485.3 669,494.7 665.7,482.4 
		661.2,475.4 659.6,479.1 649.7,467.6 646.8,463.1 	"/>
	<path class="st1" d="M681.4,529.8l-11.1-39l-0.8,9.7l-4.7-17.7l-3.4-5.3l-1.5,3.5l-11-12.8l-3-4.8v-11.5l5.4,0l16.3,4.6l11.5,15.3
		L681.4,529.8z M669.3,479.8l9.4,33.2l-1.7-40.4l-10.7-14.2l-15.5-4.4h-3v9l2.7,4.2l8.8,10.2l1.7-3.9l5.6,8.8l1.8,6.8L669.3,479.8z"
		/>
</g>
<path d="M713.1,410.8c-11.8,4.7-10.4-2.2-23.4-35.2s-40.8-31-40.8-31s-27.8-2.9-41.8,29.7s-12.8,39.6-24.5,34.5s-26-4.1-26.2,5.3
	c-0.2,9.4,11.4,18.2,28,13.6c16.6-4.7,33.7-12.2,63.2-11.7c29.6,0.5,46.4,8.5,62.8,13.7s28.3-3.2,28.5-12.7
	C739.2,407.6,724.9,406.1,713.1,410.8z"/>
<g>
	<path class="st5" d="M632.6,390.2v-14.5c0-1.1,0.9-2,2-2h26c1.1,0,2,0.9,2,2v14.5c0,1.1-0.9,2-2,2h-26
		C633.5,392.2,632.6,391.3,632.6,390.2z"/>
	<path class="st5" d="M659.7,385.5V380c0-1.1,0.9-2,2-2h3.8c1.1,0,2,0.9,2,2v5.6c0,1.1-0.9,2-2,2h-3.8
		C660.6,387.5,659.7,386.6,659.7,385.5z"/>
</g>
<path d="M647.5,388.2c-0.7-1.4-1.4-2.7-2-4.1c-0.2-0.4-0.5-0.6-0.9-0.6c-1.9,0-3.9,0-5.9-0.2c2.9-1.5,5.8-2.9,8.8-4.4
	c0.7,1.4,1.4,2.7,2,4.1c0.2,0.4,0.5,0.6,0.9,0.6c1.7,0,3.3,0,5,0c0.3,0,0.5,0,0.8,0c0,0.1,0,0.1,0,0.2
	C653.4,385.2,650.5,386.7,647.5,388.2z"/>
<g>
	<g>
		<g>
			<path class="st5" d="M523.4,542.3c0,0,23.8-34,41.4-86.1s21.3-36.9,25-139.4c0,0,16,48.8,7.8,77.9c-8.2,29.1-14.9,50.4-35.9,92.7
				S529.1,555,529.1,555S523.8,554.2,523.4,542.3z"/>
			<path class="st1" d="M529.7,556.1L529,556c-0.3,0-6.2-1.1-6.6-13.7l0-0.3l0.2-0.3c0.2-0.3,23.9-34.5,41.3-85.9
				c3.7-11,6.9-19.1,9.4-25.7c9.7-25.1,12.7-32.7,15.6-113.5l0.2-5.6l1.7,5.3c0,0.1,4.1,12.4,7,28.2c4,21.2,4.2,38.1,0.8,50.3
				c-8.3,29.5-14.9,50.5-36,92.9c-20.8,41.7-32.4,67.4-32.5,67.6L529.7,556.1z M524.4,542.6c0.3,7.9,2.9,10.4,4.2,11.1
				c2.2-4.8,13.5-29.3,32.2-66.8c21.1-42.2,27.6-63.1,35.9-92.5c6.4-22.6-2.2-57.8-6.1-71.5c-2.9,75.5-5.9,83.4-15.5,108.1
				c-2.7,6.9-5.7,14.7-9.4,25.6C549.1,505.6,526.7,539.2,524.4,542.6z"/>
		</g>
	</g>
	<g>
		<path class="st0" d="M589.8,316.7c-3.7,102.5-7.4,87.4-25,139.4s-41.4,86.1-41.4,86.1l-2.1-7.8c0,0,21.3-43,36.1-86.3
			c14.8-43.3,23-56.4,26.2-81.1C587,342.5,589.8,316.7,589.8,316.7z"/>
		<path class="st1" d="M523,544.6l-2.7-10.2l0.2-0.3c0.2-0.4,21.5-43.4,36-86.2c5.1-15,9.5-26.6,13.1-35.9c6.9-18.1,11-29,13.1-45
			c3.2-24.3,6.1-50.2,6.1-50.4l2,0.1c-2.9,81.2-5.9,88.8-15.7,114.2c-2.7,6.9-5.7,14.7-9.4,25.6c-17.5,51.6-41.3,86-41.6,86.4
			L523,544.6z M522.4,534.6l1.4,5.3c5.1-7.7,25-39.4,40.1-84.1c3.7-11,6.9-19.1,9.4-25.7c8.5-22.1,11.8-30.6,14.5-87.2
			c-0.9,7.6-2,16.1-3.1,24.4c-2.2,16.2-6.3,27.2-13.3,45.4c-3.5,9.3-7.9,20.9-13,35.8C544.5,489.4,524.4,530.5,522.4,534.6z"/>
	</g>
</g>
<path d="M754.8,642.7c-40.5-12.7-85.5-29.4-129.9-48.4c-71.7-30.6-137-64.7-183.6-95.8c-27.3-18.2-71.8-51.6-63.8-70.4
	c6.9-16.1,51.2-14.7,121.7,3.9l-0.5,1.9c-68.3-18.1-112.9-19.9-119.3-5c-5.5,12.8,17.5,37.5,63,67.9
	c46.6,31.1,111.7,65.1,183.3,95.7c44.4,19,89.3,35.6,129.7,48.3L754.8,642.7z"/>
<path d="M884.2,669.2c-28.8,0-69.3-9.6-90.9-15.4l0.5-1.9c69,18.3,114,20.3,120.4,5.3c6.8-16-31.6-51-100.4-91.2l1-1.7
	c71.8,42,108.7,76.1,101.2,93.7C912.5,666.3,900.2,669.2,884.2,669.2z"/>
<path d="M755.7,534.5c-14.6-7.4-29.9-14.8-45.4-22l0.8-1.8c15.6,7.2,30.9,14.6,45.5,22L755.7,534.5z"/>
<path d="M756,553.7l-0.9-1.8c17.2-8.7,33.7-17.6,49-26.3c75.1-42.8,117.3-79.8,110.1-96.8c-6.3-14.9-50.8-13-118.9,4.9l-0.5-1.9
	c33.2-8.8,111.5-26.6,121.2-3.8c7.8,18.2-33.7,55.3-110.9,99.3C789.8,536.1,773.3,545,756,553.7z"/>
<path d="M409.5,669.2c-15.8,0-28.5-2.9-32-11.2c-8.1-19,36.4-57.8,119.1-103.9l1,1.7c-39,21.7-70.7,42.7-91.5,60.5
	c-21.1,18.1-30.4,32.2-26.7,40.9c5.5,12.8,39.2,13.3,92.7,1.5c54.7-12.1,124.3-35.6,195.9-66.2c30.3-13,59.7-26.6,87.3-40.6l0.9,1.8
	c-27.6,14-57,27.7-87.4,40.6c-71.7,30.6-141.4,54.2-196.2,66.3C454.5,664.6,429.5,669.2,409.5,669.2z"/>
<path d="M545.4,530.7l-0.9-1.8c13.6-6.8,27.7-13.5,42-20.1l0.8,1.8C573,517.2,558.9,523.9,545.4,530.7z"/>
<g>
	<circle class="st9" cx="896.5" cy="624.5" r="22.5"/>
	<path class="st5" d="M883.2,612.6c0,0-5.9,5.1-4,15l4.6,0.5c0,0-1.4-13.5,4.1-14.1c0,0,1.8-0.7,1.5-0.9
		C888.5,612.6,883.2,612.6,883.2,612.6z"/>
</g>
<g>
	<circle class="st10" cx="413.5" cy="481.5" r="22.5"/>
	<path class="st5" d="M404.2,466c0,0-5.9,4.2-5.1,13.5l4.2,0.8c0,0-0.1-12.7,5.1-12.7c0,0,1.7-0.5,1.4-0.7
		C409.1,466.4,404.2,466,404.2,466z"/>
</g>
<g>
	<circle class="st11" cx="384.5" cy="655.5" r="34.5"/>
	<path class="st5" d="M364.3,638c0,0-9.1,6.5-7.8,20.7l6.5,1.3c0,0-0.1-19.4,7.8-19.4c0,0,2.6-0.7,2.2-1
		C371.8,638.7,364.3,638,364.3,638z"/>
	<path class="st12" d="M338.6,689c-6.4,0-12.2-1.5-14.5-6.8c-3.4-7.9-1.6-11.5,18-23.3l6.2,10.3c-10.8,6.5-9.8,5.3-11.8,7.8
		c6.5,0.6,24.7-2.3,51-13.6c26.2-11.2,40.9-22.4,45-27.5c-3.1-0.3-1.7,1-13.2,4.1l-3.1-11.6c21.3-5.6,25.2-5.5,28.5,2.2
		c3.7,8.6-6.4,17.2-14.3,22.9c-9.7,7-23.3,14.5-38.3,20.9c-15,6.4-29.8,11.2-41.6,13.3C346.8,688.4,342.6,689,338.6,689z"/>
</g>
<g>
	<circle class="st13" cx="882.5" cy="473.5" r="24.5"/>
	<path class="st5" d="M870,455.5c0,0-6.8,4.8-5.8,15.5l4.8,1c0,0-0.1-14.5,5.8-14.5c0,0,1.9-0.5,1.6-0.8
		C875.7,456,870,455.5,870,455.5z"/>
	<path class="st14" d="M838.6,479.5c-4.5-2.4-8.1-5.7-7.7-10.3c0.6-6.9,3.3-8.8,21.6-9.7l0.5,9.6c-10.1,0.5-9,0-11.4,1.1
		c4.4,2.9,18.4,7.7,41.3,9.7c22.9,2,37.5-0.3,42.4-2.5c-2.1-1.4-1.6,0.1-10.9-2.1l2.2-9.4c17.2,4.1,20,5.6,19.4,12.4
		c-0.7,7.5-11,9.8-18.8,10.9c-9.6,1.3-22,1.4-35.1,0.3c-13.1-1.1-25.4-3.4-34.6-6.3C844.7,482.2,841.5,481,838.6,479.5z"/>
</g>
</svg>
